<?xml version="1.0" standalone="no"?>
<!DOCTYPE svg PUBLIC "-//W3C//DTD SVG 20010904//EN"
 "http://www.w3.org/TR/2001/REC-SVG-20010904/DTD/svg10.dtd">
<svg version="1.0" xmlns="http://www.w3.org/2000/svg"
 width="402.000000pt" height="421.000000pt" viewBox="0 0 402.000000 421.000000"
 preserveAspectRatio="xMidYMid meet">

<g transform="translate(0.000000,421.000000) scale(0.100000,-0.100000)"
fill="#000000" stroke="none">
<path d="M1945 4058 c-34 -3 -85 -15 -116 -26 -30 -10 -342 -187 -694 -393
-709 -415 -741 -437 -807 -567 -65 -126 -63 -87 -63 -972 l0 -805 24 -72 c30
-94 93 -186 163 -243 59 -48 1254 -751 1348 -794 114 -52 251 -57 377 -15 65
21 1290 732 1378 799 84 64 145 158 182 275 17 56 18 111 18 860 0 798 0 800
-22 870 -28 90 -84 176 -155 240 -37 33 -249 163 -628 385 -696 407 -692 405
-760 431 -68 25 -165 36 -245 27z m298 -853 c167 -29 339 -105 477 -211 93
-70 99 -53 -75 -225 -86 -85 -159 -155 -163 -157 -4 -1 -32 17 -62 39 -121 92
-232 124 -405 116 -98 -4 -134 -10 -195 -32 -85 -31 -99 -39 -193 -109 -194
-144 -299 -416 -254 -661 20 -107 49 -179 106 -267 126 -193 336 -307 564
-308 276 0 512 147 596 373 l11 27 231 0 231 0 -7 -33 c-14 -68 -58 -185 -98
-262 -155 -298 -427 -488 -774 -540 -690 -104 -1298 388 -1330 1076 -26 569
374 1072 934 1173 105 19 300 19 406 1z m885 -1015 c11 -96 9 -260 -5 -317
l-5 -23 -338 0 -338 0 -130 203 c-71 112 -134 213 -141 225 l-12 22 478 -2
478 -3 13 -105z m302 -967 c47 -80 86 -149 88 -152 1 -4 -11 -14 -26 -23 l-28
-17 -85 146 c-46 81 -86 150 -88 155 -3 10 28 37 44 38 6 0 49 -66 95 -147z
m-97 -66 c57 -54 62 -126 11 -186 -38 -45 -92 -58 -148 -37 -63 24 -90 69 -83
139 4 42 10 56 41 84 31 29 42 33 90 33 48 0 59 -4 89 -33z m-280 -94 c3 -18
0 -31 -9 -36 -23 -13 -16 -46 26 -123 l39 -72 -24 -16 c-13 -9 -26 -16 -29
-16 -5 0 -126 209 -126 219 0 3 10 12 21 20 18 11 23 11 30 -1 7 -11 9 -10 9
1 0 18 29 51 45 51 7 0 15 -12 18 -27z m-202 -23 c18 -32 27 -38 45 -34 17 4
24 0 29 -16 4 -12 1 -27 -5 -35 -10 -12 -3 -31 36 -96 l48 -82 -23 -18 c-13
-11 -26 -19 -30 -19 -3 0 -27 38 -52 83 -36 63 -51 82 -66 80 -26 -3 -51 45
-28 53 12 5 11 13 -10 47 l-24 41 27 18 c15 10 28 18 29 18 1 0 12 -18 24 -40z
m-79 -160 c14 -11 46 -55 71 -99 l45 -80 -24 -16 c-13 -8 -26 -15 -28 -15 -3
0 -23 31 -45 68 -47 81 -63 96 -90 87 -39 -12 -38 -53 4 -132 38 -71 38 -73
19 -88 -10 -8 -23 -14 -29 -15 -5 0 -38 49 -72 108 l-61 107 21 17 c12 10 30
15 39 12 11 -3 19 2 23 16 7 23 50 49 81 50 12 0 33 -9 46 -20z m-219 -173
c57 -54 62 -126 11 -186 -38 -45 -92 -58 -148 -37 -63 24 -90 69 -83 139 4 42
10 56 41 84 31 29 42 33 90 33 48 0 59 -4 89 -33z m-290 -123 c13 -14 -26 -54
-53 -54 -42 0 -80 -35 -80 -74 0 -47 24 -76 64 -76 36 0 86 33 86 56 0 15 18
18 44 8 39 -15 -2 -81 -69 -114 -71 -35 -144 -10 -180 60 -47 91 28 200 136
200 25 0 48 -3 52 -6z"/>
<path d="M2519 2151 c-24 -24 -29 -38 -29 -75 0 -113 142 -158 200 -64 31 51
27 58 -35 58 -42 0 -55 -3 -55 -15 0 -10 10 -15 30 -15 32 0 37 -9 18 -28 -13
-13 -56 -16 -83 -6 -8 4 -23 20 -31 36 -18 35 -3 74 38 97 24 14 30 14 62 -1
29 -14 36 -15 46 -3 18 21 -26 45 -83 45 -40 0 -53 -5 -78 -29z"/>
<path d="M2750 2075 l0 -105 55 0 c42 0 55 3 55 15 0 10 -11 15 -35 15 -32 0
-35 2 -35 30 0 28 3 30 35 30 28 0 35 4 35 20 0 16 -7 20 -35 20 -28 0 -35 4
-35 20 0 16 7 20 35 20 28 0 35 4 35 20 0 18 -7 20 -55 20 l-55 0 0 -105z"/>
<path d="M2880 2160 c0 -13 7 -20 20 -20 18 0 20 -7 20 -85 0 -78 2 -85 20
-85 18 0 20 7 20 85 0 78 2 85 20 85 13 0 20 7 20 20 0 18 -7 20 -60 20 -53 0
-60 -2 -60 -20z"/>
<path d="M3191 1104 c-12 -15 -21 -34 -21 -44 0 -10 9 -29 21 -44 41 -52 119
-25 119 40 0 68 -79 99 -119 48z"/>
<path d="M2411 654 c-12 -15 -21 -34 -21 -44 0 -10 9 -29 21 -44 41 -52 119
-25 119 40 0 68 -79 99 -119 48z"/>
</g>
</svg>
